<svg data-v-29081953="" xmlns="http://www.w3.org/2000/svg" viewBox="0 0 300 300"><!----><defs data-v-29081953=""><linearGradient data-v-29081953="" gradientTransform="rotate(25)" id="394e57c5-b388-428d-8c9c-b0103bd6343c" x1="0%" y1="0%" x2="100%" y2="0%"><stop data-v-29081953="" offset="0%" stop-color="#000A68" stop-opacity="1"></stop><stop data-v-29081953="" offset="100%" stop-color="#00C4EE" stop-opacity="1"></stop></linearGradient></defs><rect data-v-29081953="" fill="url(#394e57c5-b388-428d-8c9c-b0103bd6343c)" x="0" y="0" width="300px" height="300px" class="logo-background-square"></rect><defs data-v-29081953=""><!----></defs><g data-v-29081953="" id="b84d51bd-2532-499f-820b-a1c9a9413564" fill="#ffffff"><path d="M5.17 12.60C5.10 13.15 4.90 13.52 4.16 13.52C3.54 13.52 3.23 13.12 3.23 12.42L3.23 11.82L7.73 11.82L7.73 10.02C7.73 7.71 6.52 6.68 4.17 6.68C1.74 6.68 0.56 8.02 0.56 9.98L0.56 12.08C0.56 14.49 1.74 15.57 4.17 15.57C6.66 15.57 7.57 14.50 7.66 12.60ZM4.20 8.68C4.82 8.68 5.17 8.97 5.17 9.74L5.17 10.11L3.23 10.11L3.23 9.79C3.23 8.99 3.54 8.68 4.20 8.68ZM12.64 13.09C12.60 13.10 12.50 13.10 12.45 13.10C11.90 13.10 11.63 12.82 11.63 12.00L11.63 4.59L8.92 4.59L8.92 11.90C8.92 14.36 9.58 15.57 11.84 15.57C12.10 15.57 12.35 15.55 12.64 15.53ZM17.85 12.60C17.78 13.15 17.58 13.52 16.84 13.52C16.23 13.52 15.92 13.12 15.92 12.42L15.92 11.82L20.41 11.82L20.41 10.02C20.41 7.71 19.21 6.68 16.86 6.68C14.42 6.68 13.24 8.02 13.24 9.98L13.24 12.08C13.24 14.49 14.42 15.57 16.86 15.57C19.35 15.57 20.26 14.50 20.34 12.60ZM16.88 8.68C17.50 8.68 17.85 8.97 17.85 9.74L17.85 10.11L15.92 10.11L15.92 9.79C15.92 8.99 16.23 8.68 16.88 8.68ZM26.07 12.60C26.00 13.15 25.80 13.52 25.06 13.52C24.44 13.52 24.14 13.12 24.14 12.42L24.14 11.82L28.63 11.82L28.63 10.02C28.63 7.71 27.43 6.68 25.07 6.68C22.64 6.68 21.46 8.02 21.46 9.98L21.46 12.08C21.46 14.49 22.64 15.57 25.07 15.57C27.57 15.57 28.48 14.50 28.56 12.60ZM25.10 8.68C25.72 8.68 26.07 8.97 26.07 9.74L26.07 10.11L24.14 10.11L24.14 9.79C24.14 8.99 24.44 8.68 25.10 8.68ZM34.29 6.68C33.42 6.68 32.77 6.93 32.30 7.43L32.17 6.85L29.82 6.85L29.82 18.10L32.52 18.10L32.52 15.15C32.89 15.41 33.39 15.57 34.09 15.57C35.67 15.57 37.00 14.45 37.00 12.26L37.00 10.12C37.00 7.85 35.99 6.68 34.29 6.68ZM32.54 10.08C32.54 9.30 32.79 9.06 33.40 9.06C34.02 9.06 34.27 9.30 34.27 10.08L34.27 12.17C34.27 12.91 33.98 13.19 33.40 13.19C32.86 13.19 32.54 12.92 32.54 12.18ZM42.73 12.60C42.66 13.15 42.46 13.52 41.72 13.52C41.10 13.52 40.80 13.12 40.80 12.42L40.80 11.82L45.29 11.82L45.29 10.02C45.29 7.71 44.09 6.68 41.73 6.68C39.30 6.68 38.12 8.02 38.12 9.98L38.12 12.08C38.12 14.49 39.30 15.57 41.73 15.57C44.23 15.57 45.14 14.50 45.22 12.60ZM41.76 8.68C42.38 8.68 42.73 8.97 42.73 9.74L42.73 10.11L40.80 10.11L40.80 9.79C40.80 8.99 41.10 8.68 41.76 8.68ZM46.48 6.85L46.48 15.40L49.20 15.40L49.20 11.17C49.20 9.83 49.92 9.49 50.67 9.49C50.89 9.49 51.11 9.52 51.32 9.56L51.32 6.75C51.20 6.73 51.07 6.72 50.95 6.72C50.16 6.72 49.41 7.08 49.01 7.66L48.83 6.85Z"></path></g><defs data-v-29081953=""><!----></defs><g data-v-29081953="" id="c6a72b4b-c751-4a7c-aa9f-5b8283889665" stroke="none" fill="#ffffff"><path d="M96.72 6.84a5.27 5.27 0 0 0-1.49-4.47 4.91 4.91 0 0 0-4-1.33C61.11 4.7 43.86 18.19 34 31.47l-4.61-.24a11.86 11.86 0 0 0-9 3.46l-7.2 7.2a.75.75 0 0 0 .24 1.22l11.48 4.76a66.25 66.25 0 0 0-3.09 10.06 3.72 3.72 0 0 0 1 3.42l13.62 13.58a3.72 3.72 0 0 0 3.42 1 66.32 66.32 0 0 0 10.06-3.09l4.76 11.48a.75.75 0 0 0 1.22.24l7.2-7.2a11.87 11.87 0 0 0 3.46-9l-.24-4.61C79.57 54 93 36.78 96.72 6.84zm-38 41.35a6.45 6.45 0 1 1 0-9.12 6.45 6.45 0 0 1 .01 9.11zm4-13.08a8.49 8.49 0 1 1 12 0 8.49 8.49 0 0 1-12.03-.01zM10.9 77.39a12.45 12.45 0 0 0-6.28-.5 1.14 1.14 0 0 1-1-.31 1.15 1.15 0 0 1-.24-1.3c2.18-4.83 8.18-14.54 18.93-6.7a.54.54 0 0 1 0 .8A11.71 11.71 0 0 0 17.83 79a.85.85 0 0 0 .82.82 11.71 11.71 0 0 0 9.6-4.37.54.54 0 0 1 .83 0c1.5 1.79 5.62 7.6 1.06 13.22a11.86 11.86 0 0 1-8 4.2c-4.45.49-12.63 1.89-16 5.74a1.15 1.15 0 0 1-2-.42C3 94.15 1.21 85.15 10.9 77.39z"></path></g><defs data-v-29081953=""><!----></defs><g data-v-29081953="" id="58caec06-91ba-4921-bfa7-9cf75d00b01b" fill="#ffffff"><path d=""></path></g></svg>